<svg xmlns="http://www.w3.org/2000/svg" width="495" height="195" viewBox="0 0 495 195">
  <rect width="495" height="195" rx="4.5" fill="#ffffff" stroke="#eaeef2" stroke-width="1"/>
  <text x="25" y="35" fill="#ff0080" font-family="Segoe UI, Ubuntu, sans-serif" font-size="18" font-weight="600">Most Used Languages</text>
  <g transform="translate(25, 55)">
  <g transform="translate(0, 0)">
    <text x="2" y="15" fill="#24292f" font-family="Segoe UI, Ubuntu, sans-serif" font-size="11">TypeScript</text>
    <text x="215" y="34" fill="#57606a" font-family="Segoe UI, Ubuntu, sans-serif" font-size="11">68.04%</text>
    <rect x="0" y="25" width="205" height="8" rx="5" fill="#eaeef2"/>
    <rect x="0" y="25" width="139" height="8" rx="5" fill="#3178c6"/>
  </g>
  <g transform="translate(0, 40)">
    <text x="2" y="15" fill="#24292f" font-family="Segoe UI, Ubuntu, sans-serif" font-size="11">Dart</text>
    <text x="215" y="34" fill="#57606a" font-family="Segoe UI, Ubuntu, sans-serif" font-size="11">18.66%</text>
    <rect x="0" y="25" width="205" height="8" rx="5" fill="#eaeef2"/>
    <rect x="0" y="25" width="38" height="8" rx="5" fill="#00B4AB"/>
  </g>
  <g transform="translate(0, 80)">
    <text x="2" y="15" fill="#24292f" font-family="Segoe UI, Ubuntu, sans-serif" font-size="11">JavaScript</text>
    <text x="215" y="34" fill="#57606a" font-family="Segoe UI, Ubuntu, sans-serif" font-size="11">11.93%</text>
    <rect x="0" y="25" width="205" height="8" rx="5" fill="#eaeef2"/>
    <rect x="0" y="25" width="24" height="8" rx="5" fill="#f1e05a"/>
  </g>
  <g transform="translate(0, 120)">
    <text x="2" y="15" fill="#24292f" font-family="Segoe UI, Ubuntu, sans-serif" font-size="11">Python</text>
    <text x="215" y="34" fill="#57606a" font-family="Segoe UI, Ubuntu, sans-serif" font-size="11">0.76%</text>
    <rect x="0" y="25" width="205" height="8" rx="5" fill="#eaeef2"/>
    <rect x="0" y="25" width="4" height="8" rx="5" fill="#3572A5"/>
  </g>
  <g transform="translate(0, 160)">
    <text x="2" y="15" fill="#24292f" font-family="Segoe UI, Ubuntu, sans-serif" font-size="11">C++</text>
    <text x="215" y="34" fill="#57606a" font-family="Segoe UI, Ubuntu, sans-serif" font-size="11">0.30%</text>
    <rect x="0" y="25" width="205" height="8" rx="5" fill="#eaeef2"/>
    <rect x="0" y="25" width="4" height="8" rx="5" fill="#f34b7d"/>
  </g>
  <g transform="translate(0, 200)">
    <text x="2" y="15" fill="#24292f" font-family="Segoe UI, Ubuntu, sans-serif" font-size="11">Java</text>
    <text x="215" y="34" fill="#57606a" font-family="Segoe UI, Ubuntu, sans-serif" font-size="11">0.11%</text>
    <rect x="0" y="25" width="205" height="8" rx="5" fill="#eaeef2"/>
    <rect x="0" y="25" width="4" height="8" rx="5" fill="#b07219"/>
  </g>
  </g>
</svg>